<svg width="219" height="47" viewBox="0 0 219 47" fill="none" xmlns="http://www.w3.org/2000/svg">
<path d="M162.498 0H218.584L210.086 46.889H154L162.498 0Z" fill="#0C342D"/>
<g clip-path="url(#clip0_210_142)">
<g clip-path="url(#clip1_210_142)">
<path d="M189.128 19.9048L169.794 38.4109C168.925 39.1963 167.519 39.1963 166.651 38.4109C165.783 37.6255 165.783 36.3519 166.651 35.566L187.094 18.064L189.128 19.9048Z" fill="white"/>
<path d="M194.234 22.2768C190.424 19.9058 187.093 16.8908 184.474 13.4421C187.491 10.7105 189 9.34492 192.018 6.61334C195.828 8.98479 199.158 11.9997 201.778 15.448C198.76 18.1796 197.251 19.5456 194.234 22.2768Z" fill="white"/>
<path d="M183.32 13.2247C182.956 13.5541 182.329 13.5206 181.92 13.1497C181.511 12.7793 181.474 12.2121 181.837 11.8828L190.295 4.2267C190.659 3.89736 191.286 3.93083 191.696 4.30123C192.105 4.67207 192.142 5.23927 191.778 5.56817L183.32 13.2247Z" fill="white"/>
<path d="M195.956 24.6642C195.593 24.9927 194.965 24.9597 194.556 24.5893C194.147 24.2189 194.111 23.6512 194.473 23.3219L202.931 15.6658C203.295 15.3369 203.922 15.3704 204.331 15.7407C204.74 16.1111 204.778 16.6788 204.414 17.0077L195.956 24.6642Z" fill="white"/>
<path d="M199.254 34.8863C202.443 34.8863 203.297 34.6833 206.351 34.2767C209.405 33.8702 208.777 38.8304 208.777 38.8304H199.254H189.732C189.732 38.8304 189.104 33.8702 192.158 34.2767C195.212 34.6833 196.065 34.8863 199.254 34.8863Z" fill="white"/>
</g>
</g>
<path d="M8.4979 0H160.321L151.824 46.889H0L8.4979 0Z" fill="#0C342D"/>
<path d="M30.2337 32.4275H25.2285L24.3957 29.0241H18.889L18.0308 32.4275H13L18.5321 14.2093H24.6336L30.2337 32.4275ZM19.8408 25.0019H23.4439L22.7131 22.0262C22.5431 21.3649 22.3364 20.5095 22.0928 19.46C21.8491 18.4105 21.6877 17.6582 21.6084 17.2032C21.5404 17.6218 21.4044 18.3164 21.2005 19.2871C20.9965 20.2517 20.5433 22.1566 19.8408 25.0019ZM39.2245 23.5277L41.5784 14.2821H46.7027L41.1535 32.4275H35.7574L30.2337 14.2821H35.375L37.6864 23.4822C38.1623 25.5267 38.4257 26.9493 38.4767 27.7501C38.5277 27.1677 38.6353 26.4427 38.7996 25.5752C38.9583 24.7077 39.0999 24.0252 39.2245 23.5277ZM64.3868 23.3275C64.3868 26.3851 63.6871 28.7056 62.2878 30.289C60.8885 31.8785 58.8405 32.6732 56.1438 32.6732C53.4868 32.6732 51.4502 31.8754 50.0339 30.2799C48.6175 28.6844 47.9094 26.3608 47.9094 23.3093C47.9094 20.2881 48.6147 17.9797 50.0254 16.3842C51.436 14.7947 53.484 14 56.1693 14C58.866 14 60.9112 14.7887 62.3048 16.366C63.6928 17.9494 64.3868 20.2699 64.3868 23.3275ZM52.7277 23.3275C52.7277 26.8401 53.8664 28.5964 56.1438 28.5964C57.3052 28.5964 58.1663 28.1687 58.7272 27.3133C59.2881 26.464 59.5685 25.1354 59.5685 23.3275C59.5685 21.5196 59.2824 20.1819 58.7102 19.3144C58.1437 18.4529 57.2967 18.0222 56.1693 18.0222C53.8749 18.0222 52.7277 19.7906 52.7277 23.3275ZM74.9922 18.0404C73.9045 18.0404 73.0547 18.5197 72.4428 19.4782C71.831 20.4307 71.525 21.7471 71.525 23.4276C71.525 26.922 72.7657 28.6692 75.2471 28.6692C75.9949 28.6692 76.7201 28.557 77.4226 28.3325C78.1251 28.108 78.8332 27.8381 79.5471 27.5226V31.6722C78.1307 32.3395 76.5303 32.6732 74.7458 32.6732C72.1907 32.6732 70.2305 31.8785 68.8652 30.289C67.4999 28.7056 66.8172 26.4124 66.8172 23.4094C66.8172 21.5287 67.1486 19.8756 67.8115 18.4499C68.4743 17.0303 69.4261 15.9383 70.6668 15.1739C71.9018 14.4034 73.3578 14.0182 75.0347 14.0182C76.8702 14.0182 78.6208 14.4459 80.2864 15.3013L78.8842 19.1597C78.261 18.8442 77.635 18.5803 77.0062 18.368C76.383 18.1496 75.7117 18.0404 74.9922 18.0404ZM98.2509 32.4275H93.2457L92.4129 29.0241H86.9062L86.048 32.4275H81.0172L86.5493 14.2093H92.6508L98.2509 32.4275ZM87.858 25.0019H91.4611L90.7303 22.0262C90.5603 21.3649 90.3536 20.5095 90.11 19.46C89.8663 18.4105 89.7049 17.6582 89.6256 17.2032C89.5576 17.6218 89.4216 18.3164 89.2177 19.2871C89.0137 20.2517 88.5605 22.1566 87.858 25.0019ZM107.556 18.2952V32.4275H102.976V18.2952H98.8458V14.2821H111.686V18.2952H107.556ZM118.705 32.4275H114.108V14.2821H118.705V32.4275ZM129.914 18.0404C128.826 18.0404 127.977 18.5197 127.365 19.4782C126.753 20.4307 126.447 21.7471 126.447 23.4276C126.447 26.922 127.688 28.6692 130.169 28.6692C130.917 28.6692 131.642 28.557 132.345 28.3325C133.047 28.108 133.755 27.8381 134.469 27.5226V31.6722C133.053 32.3395 131.452 32.6732 129.668 32.6732C127.113 32.6732 125.152 31.8785 123.787 30.289C122.422 28.7056 121.739 26.4124 121.739 23.4094C121.739 21.5287 122.071 19.8756 122.733 18.4499C123.396 17.0303 124.348 15.9383 125.589 15.1739C126.824 14.4034 128.28 14.0182 129.957 14.0182C131.792 14.0182 133.543 14.4459 135.208 15.3013L133.806 19.1597C133.183 18.8442 132.557 18.5803 131.928 18.368C131.305 18.1496 130.634 18.0404 129.914 18.0404ZM147.828 28.4326V32.4275H137.775V14.2821H147.828V18.2133H142.347V21.0707H147.428V25.0019H142.347V28.4326H147.828Z" fill="white"/>
<defs>
<clipPath id="clip0_210_142">
<rect width="39.0903" height="37.789" fill="white" transform="translate(166 4)"/>
</clipPath>
<clipPath id="clip1_210_142">
<rect width="42.83" height="35" fill="white" transform="translate(166 4)"/>
</clipPath>
</defs>
</svg>
